# xmcd CD database file
#
# Track frame offsets:
#	150
#	13350
#	48650
#	94950
#	138537
#	194825
#	243950
#
# Disc length: 3674 seconds
#
# Revision: 0
# Processed by: cddbd v1.5.2PL0 Copyright (c) Steve Scherf et al.
# Submitted via: CDex 1.70beta2
#
DISCID=6a0e5807
DTITLE=Toshiko Akiyoshi Jazz Orchestra featuring Lew Tabackin - Monopoly Game
DYEAR=1998
DGENRE=Jazz
TTITLE0=Jazz Club (Opener)
TTITLE1=Glass Ceiling
TTITLE2=Monopoly Game
TTITLE3=Kyoto Paradox - Suite for Koto and Jazz Orchestra
TTITLE4=Caribbean Dream - Suite for Koto and Jazz Orchestra
TTITLE5=Urban Rhapsoody - Suite for Koto and Jazz Orchestra
TTITLE6=State of the Unison
EXTD=YEAR: 1998
EXTT0=
EXTT1=
EXTT2=
EXTT3=
EXTT4=
EXTT5=
EXTT6=
PLAYORDER=
